<?xml version="1.0" encoding="utf-8"?>
<!-- Generator: Adobe Illustrator 26.5.0, SVG Export Plug-In . SVG Version: 6.00 Build 0)  -->
<svg version="1.1" id="Layer_1" xmlns="http://www.w3.org/2000/svg" xmlns:xlink="http://www.w3.org/1999/xlink" x="0px" y="0px"
	 viewBox="0 0 48 48" style="enable-background:new 0 0 48 48;" xml:space="preserve">
<style type="text/css">
	.st0{filter:url(#shadow);}
	.st1{fill:#303030;}
	.st2{fill:none;stroke:#E76F51;stroke-width:2.8;stroke-linecap:round;stroke-linejoin:round;}
</style>
<filter  height="120%" id="shadow" width="120%" x="-10%" y="-10%">
	<feDropShadow  dx="0" dy="1" flood-color="#000000" flood-opacity="0.18" stdDeviation="1.5"></feDropShadow>
</filter>
<g class="st0">
	<path class="st1" d="M12,2h24c5.5,0,10,4.5,10,10v24c0,5.5-4.5,10-10,10H12C6.5,46,2,41.5,2,36V12C2,6.5,6.5,2,12,2z"/>
</g>
<path class="st2" d="M20,13c-2.7,0-4,1.3-4,4v4c0,2-1,3-3,3c2,0,3,1,3,3v4c0,2.7,1.3,4,4,4"/>
<path class="st2" d="M28,13c2.7,0,4,1.3,4,4v4c0,2,1,3,3,3c-2,0-3,1-3,3v4c0,2.7-1.3,4-4,4"/>
</svg>
